<?xml version="1.0" encoding="UTF-8"?>
<!-- Generator: Adobe Illustrator 24.0.0, SVG Export Plug-In . SVG Version: 6.00 Build 0)  -->
<svg version="1.1" id="Layer_1" xmlns="http://www.w3.org/2000/svg" xmlns:xlink="http://www.w3.org/1999/xlink" x="0px" y="0px" viewBox="0 0 50 50" style="enable-background:new 0 0 50 50;" xml:space="preserve">
<style type="text/css">
	.st0{fill:#76BFB5;}
</style>
<g>
	<path class="st0" d="M12.32,19.6V7c0-2.63,1.55-3.95,4.65-3.95s4.65,1.48,4.65,4.43c0,1.18-0.22,2.27-0.64,3.26   c-0.43,0.99-1.02,1.75-1.77,2.25l-3.87,2.66v3.66c0,1.13,0.53,1.69,1.59,1.69c1.06,0,1.59-0.63,1.59-1.89v-0.93L18.4,16.3   c0.35-0.08,0.7-0.12,1.07-0.12s0.7,0.05,1.03,0.16c0.64,0.16,0.97,0.47,0.97,0.93v2.9c0,1.07-0.42,1.91-1.27,2.52   c-0.85,0.6-1.97,0.91-3.36,0.91C13.82,23.58,12.32,22.26,12.32,19.6z M18.52,7.36c0-0.54-0.16-0.96-0.48-1.27   c-0.32-0.31-0.72-0.46-1.21-0.46c-0.99,0-1.49,0.42-1.49,1.25v5.76l1.93-1.45C18.11,10.57,18.52,9.29,18.52,7.36z"/>
</g>
<g>
	<path class="st0" d="M31.68,19.2c0,1.21,0.54,1.81,1.63,1.81s1.63-0.66,1.63-1.97v-1.65c0-0.99-0.35-1.7-1.05-2.13l-3.54-2.13   c-1.05-0.64-1.57-1.73-1.57-3.26V7.04c0-1.18,0.38-2.14,1.15-2.88c0.77-0.74,1.89-1.11,3.38-1.11c1.49,0,2.62,0.31,3.4,0.93   c0.78,0.62,1.17,1.46,1.17,2.54v2.54c0,0.46-0.32,0.76-0.97,0.93c-0.32,0.11-0.66,0.16-1.03,0.16s-0.72-0.04-1.07-0.12   c0.08-0.59,0.12-1.22,0.12-1.89v-0.6c0-1.26-0.51-1.89-1.53-1.89c-1.07,0-1.61,0.56-1.61,1.69v1.85c0,0.94,0.29,1.57,0.89,1.89   l3.54,2.05c1.15,0.64,1.73,1.75,1.73,3.3v3.02c0,1.29-0.38,2.3-1.15,3.04c-0.77,0.74-1.89,1.11-3.36,1.11   c-1.48,0-2.63-0.29-3.46-0.88c-0.83-0.59-1.25-1.44-1.25-2.54v-2.66c0-0.46,0.32-0.77,0.97-0.93c0.32-0.11,0.66-0.16,1.03-0.16   s0.72,0.04,1.07,0.12c-0.08,0.59-0.12,1.22-0.12,1.89V19.2z"/>
</g>
<g>
	<path class="st0" d="M39.25,19.48V7.32c0-1.34,0.42-2.39,1.25-3.14c0.83-0.75,1.96-1.13,3.38-1.13c1.42,0,2.53,0.35,3.32,1.05   c0.79,0.7,1.19,1.72,1.19,3.06v12.16c0,1.34-0.42,2.39-1.27,3.14c-0.85,0.75-1.98,1.13-3.4,1.13c-1.42,0-2.52-0.35-3.3-1.05   C39.64,21.84,39.25,20.82,39.25,19.48z M42.27,7.16v12.32c0,0.46,0.15,0.84,0.44,1.15c0.29,0.31,0.66,0.46,1.11,0.46   c0.44,0,0.81-0.15,1.11-0.46s0.44-0.69,0.44-1.15V7.16c0-0.46-0.15-0.84-0.44-1.15c-0.3-0.31-0.66-0.46-1.11-0.46   c-0.44,0-0.81,0.16-1.11,0.46C42.42,6.32,42.27,6.7,42.27,7.16z"/>
</g>
<g>
	<path class="st0" d="M25.29,42.71c0,1.32,0.09,2.42,0.28,3.3c-0.81,0.11-1.68,0.16-2.62,0.16c-0.46,0-0.68-0.2-0.68-0.6V29.63   c0-0.56-0.1-0.97-0.3-1.21c-0.2-0.24-0.58-0.36-1.15-0.36c-0.03-0.7,0.15-1.23,0.54-1.61c0.39-0.38,1.01-0.56,1.87-0.56   s1.48,0.42,1.85,1.25c0.89-0.83,1.84-1.25,2.88-1.25c1.03,0,1.87,0.34,2.5,1.01c0.63,0.67,0.95,1.62,0.95,2.86v12.92   c0,0.56,0.1,0.97,0.3,1.21c0.2,0.24,0.58,0.36,1.15,0.36c0.03,0.7-0.15,1.24-0.54,1.61c-0.39,0.38-0.96,0.56-1.71,0.56   c-0.75,0-1.31-0.23-1.67-0.68s-0.54-1.21-0.54-2.25V29.99c0-0.89-0.46-1.33-1.37-1.33c-0.75,0-1.33,0.42-1.73,1.25V42.71z"/>
</g>
<g>
	<path class="st0" d="M44.04,25.88c3.01,0,4.51,1.33,4.51,3.99v12.8c0,0.56,0.1,0.97,0.3,1.21c0.2,0.24,0.58,0.36,1.15,0.36   c0.03,0.7-0.15,1.24-0.54,1.61c-0.39,0.38-0.95,0.56-1.67,0.56c-1.13,0-1.81-0.42-2.05-1.25c-0.83,0.83-1.81,1.25-2.94,1.25   c-1.13,0-2.03-0.43-2.7-1.29c-0.67-0.86-1.01-2.01-1.01-3.46c0-2.2,0.93-3.86,2.78-4.99l3.66-2.17v-4.35   c0-1.13-0.53-1.69-1.59-1.69c-1.06,0-1.59,0.63-1.59,1.89v1.33l0.12,1.89c-0.35,0.08-0.7,0.12-1.07,0.12s-0.7-0.05-1.03-0.16   c-0.64-0.16-0.97-0.47-0.97-0.93v-3.3c0-1.07,0.42-1.91,1.27-2.52C41.52,26.19,42.64,25.88,44.04,25.88z M43.6,38.65   c-0.89,0.59-1.33,1.58-1.33,2.96c0,1.38,0.42,2.07,1.27,2.07c0.85,0,1.51-0.48,1.99-1.45v-4.87L43.6,38.65z"/>
</g>
<g>
	<polygon class="st0" points="11.1,45.95 11.1,42.82 4.85,42.82 4.85,36.57 1.72,36.57 1.72,45.95  "/>
</g>
<g>
	<path class="st0" d="M23.53,3.45v18.61c0,0.84,0.68,1.51,1.51,1.51c0.84,0,1.51-0.68,1.51-1.51V3.45H23.53z"/>
</g>
<g>
	<path class="st0" d="M34.22,26.09V44.7c0,0.84,0.68,1.51,1.51,1.51c0.84,0,1.51-0.68,1.51-1.51V26.09H34.22z"/>
</g>
<path class="st0" d="M10.9,15.92V7.16c0-1.31-0.32-2.33-0.97-3.04C9.29,3.41,8.45,3.05,7.4,3.05c-1.05,0-1.99,0.42-2.82,1.25  C4.23,3.47,3.62,3.05,2.75,3.05c-0.87,0-1.5,0.19-1.89,0.56C0.47,3.99,0.29,4.53,0.31,5.22c0.56,0,0.95,0.12,1.15,0.36  c0.2,0.24,0.3,0.64,0.3,1.21v19.86c0,0.4,0.27,0.6,0.81,0.6c0.82,0,1.56-0.12,2.21-0.35v-2.75v-0.04V23.6l3.87-2.84  c0,0,1.28-1,1.8-2.16c0.36-0.8,0.44-1.75,0.45-2.28c0,0,0,0,0,0v-0.06C10.91,16.06,10.9,15.92,10.9,15.92z M7.61,17.98  c-0.22,0.55-0.84,1.02-0.84,1.02l-1.99,1.48V7.24C4.94,6.89,5.2,6.56,5.57,6.25s0.74-0.46,1.15-0.46c0.78,0,1.17,0.47,1.17,1.41  v9.41C7.88,16.61,7.91,17.25,7.61,17.98z"/>
</svg>